<svg width="14px" height="14px" viewBox="0 0 14 14" version="1.1" xmlns="http://www.w3.org/2000/svg" xmlns:xlink="http://www.w3.org/1999/xlink">
    <g id="Design" stroke="none" stroke-width="1" fill="none" fill-rule="evenodd">
        <g id="Travel-Landing-Page" transform="translate(-428.000000, -3764.000000)" fill="#FFFFFF" fill-rule="nonzero">
            <g id="Today-top-places-Section" transform="translate(80.000000, 3315.000000)">
                <g id="1" transform="translate(0.000000, 106.000000)">
                    <g id="Comments" transform="translate(320.000000, 338.000000)">
                        <path d="M41.993,6.4 C41.993,5.63 41.37,5 40.6,5 L29.4,5 C28.63,5 28,5.63 28,6.4 L28,14.8 C28,15.57 28.63,16.2 29.4,16.2 L39.2,16.2 L42,19 L41.993,6.4 Z M39.2,13.4 L30.8,13.4 L30.8,12 L39.2,12 L39.2,13.4 Z M39.2,11.3 L30.8,11.3 L30.8,9.9 L39.2,9.9 L39.2,11.3 Z M39.2,9.2 L30.8,9.2 L30.8,7.8 L39.2,7.8 L39.2,9.2 Z" id="Shape"></path>
                    </g>
                </g>
            </g>
        </g>
    </g>
</svg>